<svg id="Layer_2" xmlns="http://www.w3.org/2000/svg" viewBox="0 0 558.74 159"><defs><style>.cls-1{fill:#74b748;}</style></defs><g id="Layer_1-2"><path class="cls-1" d="M108.83,1l-28.53,106.49-15.14-56.49C57.26,21.51,30.53,1,0,1h0L26.18,98.71c9.37,34.97,41.07,59.29,77.27,59.29h15.07L160.6,1h-51.76Z"/><path class="cls-1" d="M334.74,1h50V158h0c-27.6,0-50-22.4-50-50V1h0Z"/><path class="cls-1" d="M479.74,1c-43.63,0-79,35.37-79,79s35.37,79,79,79,79-35.37,79-79S523.37,1,479.74,1Zm0,109c-16.57,0-30-13.43-30-30s13.43-30,30-30,30,13.43,30,30-13.43,30-30,30Z"/><path class="cls-1" d="M210.74,108v-1h50v.03c16.75,.33,31.46,8.89,40.29,21.8,11.06-13.59,17.71-30.93,17.71-49.83C318.74,35.37,283.37,0,239.74,0s-79,35.37-79,79,35.37,79,79,79c4,0,7.93-.3,11.78-.88-23.2-4.33-40.78-24.66-40.78-49.12Zm29-72c16.57,0,30,13.43,30,30h-60c0-16.57,13.43-30,30-30Z"/></g></svg>